<?xml version="1.0" encoding="UTF-8"?>
<svg width="60px" height="53px" viewBox="0 0 60 53" version="1.1" xmlns="http://www.w3.org/2000/svg" xmlns:xlink="http://www.w3.org/1999/xlink">
    <title>Team</title>
    <g id="Symbols" stroke="none" stroke-width="1" fill="none" fill-rule="evenodd">
        <g id="Team" fill="#185D6F" stroke="#F5F5F5">
            <g id="Group">
                <path d="M15,13.2586207 C18.944486,13.2586207 22.4932085,15.8504254 25.0911308,19.9771901 C27.6924055,24.1092798 29.3437581,29.78824 29.489486,36.0894822 L29.489486,36.0894822 L0.503253494,36.4929467 C0.585310252,30.1043645 2.21450163,24.3302843 4.81858241,20.1218503 C7.42423439,15.9108771 11.0094438,13.2586207 15,13.2586207 Z" id="Combined-Shape"></path>
                <ellipse id="Oval" stroke-width="2" cx="15" cy="9.56896552" rx="8.7826087" ry="8.56896552"></ellipse>
            </g>
            <g id="Group-Copy" transform="translate(30.000000, 0.000000)">
                <path d="M15,13.2586207 C18.944486,13.2586207 22.4932085,15.8504254 25.0911308,19.9771901 C27.6924055,24.1092798 29.3437581,29.78824 29.489486,36.0894822 L29.489486,36.0894822 L0.503253494,36.4929467 C0.585310252,30.1043645 2.21450163,24.3302843 4.81858241,20.1218503 C7.42423439,15.9108771 11.0094438,13.2586207 15,13.2586207 Z" id="Combined-Shape"></path>
                <ellipse id="Oval" stroke-width="2" cx="15" cy="9.56896552" rx="8.7826087" ry="8.56896552"></ellipse>
            </g>
            <g id="Group-Copy-2" transform="translate(10.000000, 5.000000)" stroke-width="2">
                <path d="M19,17.8648649 C23.8881442,17.8648649 28.2626422,21.1543637 31.4730177,26.3288744 C34.825954,31.7331656 36.9155736,39.2143899 36.9974668,47.4900674 L36.989,47 L1.00978619,47 C1.162245,39.2218036 3.08716863,32.1775048 6.15987973,26.9375117 L6.41858252,26.5050452 C9.63844804,21.2286795 14.0562591,17.8648649 19,17.8648649 Z" id="Combined-Shape"></path>
                <ellipse id="Oval" cx="19" cy="12.3243243" rx="11.4482759" ry="11.3243243"></ellipse>
            </g>
        </g>
    </g>
</svg>